<svg width="24" height="25" viewBox="0 0 24 25" fill="none" xmlns="http://www.w3.org/2000/svg">
<path d="M11.7979 17.5292C11.8219 17.5615 11.8525 17.5875 11.8876 17.6055C11.9226 17.6234 11.961 17.6327 12 17.6327C12.039 17.6327 12.0774 17.6234 12.1124 17.6055C12.1474 17.5875 12.1781 17.5615 12.2021 17.5292L15.7957 12.7516C15.9273 12.5763 15.8086 12.3167 15.5936 12.3167H13.216V0.90709C13.216 0.758738 13.1005 0.63736 12.9594 0.63736H11.0342C10.893 0.63736 10.7775 0.758738 10.7775 0.90709V12.3133H8.40642C8.19144 12.3133 8.07273 12.5729 8.20428 12.7482L11.7979 17.5292ZM23.7433 16.3491H21.8182C21.677 16.3491 21.5615 16.4705 21.5615 16.6189V21.8112H2.4385V16.6189C2.4385 16.4705 2.32299 16.3491 2.18182 16.3491H0.256684C0.115508 16.3491 0 16.4705 0 16.6189V23.2947C0 23.8915 0.458824 24.3736 1.02674 24.3736H22.9733C23.5412 24.3736 24 23.8915 24 23.2947V16.6189C24 16.4705 23.8845 16.3491 23.7433 16.3491Z" fill="black"/>
</svg>
